<svg version="1.1" viewBox="0 0 96 96" xmlns="http://www.w3.org/2000/svg" xmlns:xlink="http://www.w3.org/1999/xlink" id="Icons_Cow" overflow="hidden"><g><path d=" M 20.2 75.1 C 20.2 76.8 21.5 78.1 23.2 78.1 C 24.9 78.1 26.2 76.8 26.2 75.1 L 26.2 66.1 L 20.2 66.1 L 20.2 75.1 Z" stroke="#000000" stroke-width="1" stroke-linecap="butt" stroke-opacity="1" fill="#346686" fill-opacity="1"/><path d=" M 91.2 38.8 L 81.7 27.7 C 84.3 27 86.2 24.7 86.2 21.9 L 86.2 19.9 C 86.2 18.8 85.3 17.9 84.2 17.9 C 83.1 17.9 82.2 18.8 82.2 19.9 L 82.2 21.9 C 82.2 23 81.3 23.9 80.2 23.9 L 74.2 23.9 C 73.1 23.9 72.2 23 72.2 21.9 L 72.2 19.9 C 72.2 18.8 71.3 17.9 70.2 17.9 C 69.1 17.9 68.2 18.8 68.2 19.9 L 68.2 21.9 C 68.2 23.4 68.8 24.8 69.7 25.9 L 61.2 25.9 L 14.2 25.9 C 12 25.9 10.2 27.7 10.2 29.9 C 6.9 29.9 4.2 32.6 4.2 35.9 L 4.2 57.9 C 4.2 59 5.1 59.9 6.2 59.9 C 7.3 59.9 8.2 59 8.2 57.9 L 8.2 36 C 8.2 34.9 9.1 34 10.2 34 L 10.2 60 L 10.2 75 C 10.2 76.7 11.5 78 13.2 78 C 14.9 78 16.2 76.7 16.2 75 L 16.2 64 L 26.2 64 C 28.4 64 30.2 62.2 30.2 60 L 50.2 60 L 50.2 75 C 50.2 76.7 51.5 78 53.2 78 C 54.9 78 56.2 76.7 56.2 75 L 56.2 60 L 60.2 60 L 60.2 75 C 60.2 76.7 61.5 78 63.2 78 C 64.9 78 66.2 76.7 66.2 75 L 66.2 59.8 C 69.6 58.9 72.2 55.8 72.2 52.1 C 72.2 48.5 75.1 43.1 79.2 43.1 C 81.9 43.1 84.9 44.4 86.6 45.3 C 87.5 45.8 88.6 45.5 89.2 44.6 L 91.3 41.4 C 91.9 40.5 91.8 39.5 91.2 38.8 Z" stroke="#000000" stroke-width="1" stroke-linecap="butt" stroke-opacity="1" fill="#346686" fill-opacity="1"/></g></svg>