<svg version="1.1" viewBox="0 0 96 96" xmlns="http://www.w3.org/2000/svg" xmlns:xlink="http://www.w3.org/1999/xlink" id="Icons_BugSpray" overflow="hidden"><g><path d=" M 44 13 C 44 14.1 45.8 15 48 15 C 50.2 15 52 14.1 52 13 L 52 10 C 50.9 10 50 9.1 50 8 C 50 6.9 50.9 6 52 6 L 52 4 L 48 4 C 45.8 4 44 5.8 44 8 L 44 13 L 44 13 L 44 13 Z" stroke="#000000" stroke-width="1" stroke-linecap="butt" stroke-opacity="1" fill="#147398" fill-opacity="1"/><path d=" M 62.3 26.2 C 61 22 57.8 18.9 53.7 17.3 C 52.3 18.4 50.3 19 48 19 C 45.7 19 43.7 18.4 42.3 17.3 C 38.2 18.8 35 22 33.7 26.2 L 33.7 26.2 C 31.4 27.5 30 29.2 30 31 C 30 35.4 38.1 39 48 39 C 57.9 39 66 35.4 66 31 C 66 29.2 64.6 27.5 62.3 26.2 Z" stroke="#000000" stroke-width="1" stroke-linecap="butt" stroke-opacity="1" fill="#147398" fill-opacity="1"/><path d=" M 62.3 40.3 C 58.4 42 53.3 43 48 43 C 42.7 43 37.6 42 33.7 40.3 C 32.2 39.6 31 38.9 30 38.2 L 30 84 L 30 84 C 30 88.4 38.1 92 48 92 C 57.9 92 66 88.4 66 84 L 66 84 L 66 38.2 C 65 38.9 63.8 39.6 62.3 40.3 Z M 42.2 49.4 C 42.4 48.9 43 48.7 43.5 49 C 44.4 49.4 45.1 50.1 45.7 51 C 46 51.5 46.3 52.1 46.5 52.6 C 47.4 52.4 48.4 52.3 49.4 52.6 C 49.6 52.1 49.8 51.6 50.2 51 C 50.7 50.1 51.5 49.5 52.4 49 C 52.9 48.8 53.5 49 53.7 49.4 C 53.9 49.9 53.7 50.5 53.3 50.7 C 52.7 51 52.3 51.4 51.9 52 C 51.6 52.4 51.4 52.8 51.3 53.2 C 51.9 53.6 52.3 54 52.7 54.6 C 53.9 56.5 54 58.4 53.4 59.9 L 42.6 59.9 C 42.4 59.3 42.3 58.7 42.3 58 C 42.3 56 43.3 54.3 44.8 53.3 C 44.6 52.9 44.4 52.4 44.2 52 C 43.9 51.5 43.4 51 42.8 50.7 C 42.2 50.5 42 49.9 42.2 49.4 Z M 60 63 C 60 63.4 59.8 63.8 59.4 63.9 L 55.3 65.6 C 55.6 67 55.8 68.4 55.9 69.6 L 59.4 71 C 59.8 71.2 60 71.5 60 71.9 L 60 77.9 C 60 78.5 59.6 78.9 59 78.9 C 58.4 78.9 58 78.5 58 77.9 L 58 72.6 L 56 71.8 C 55.6 75.8 52.2 79 48 79 C 43.8 79 40.5 75.9 40 71.8 L 38 72.6 L 38 78 C 38 78.6 37.6 79 37 79 C 36.4 79 36 78.6 36 78 L 36 72 C 36 71.6 36.2 71.2 36.6 71.1 L 40.1 69.7 C 40.2 68.5 40.4 67 40.7 65.7 L 36.6 64 C 36.2 63.8 36 63.4 36 63 L 36 57 C 36 56.4 36.4 56 37 56 C 37.6 56 38 56.4 38 57 L 38 62.3 L 41.3 63.7 C 41.5 63.1 41.8 62.5 42.1 62.2 L 54 62.2 C 54.3 62.5 54.5 63 54.8 63.7 L 58.1 62.3 L 58.1 57 C 58.1 56.4 58.5 56 59.1 56 C 59.7 56 60.1 56.4 60.1 57 L 60.1 63 Z" stroke="#000000" stroke-width="1" stroke-linecap="butt" stroke-opacity="1" fill="#147398" fill-opacity="1"/></g></svg>