<svg version="1.1" viewBox="0 0 96 96" xmlns="http://www.w3.org/2000/svg" xmlns:xlink="http://www.w3.org/1999/xlink" id="Icons_WateringPot" overflow="hidden"><g><path d=" M 75.8 66.7 C 75.8 66.7 78.3 70.4 78.3 72.1 C 78.3 73.5 77.2 74.6 75.8 74.6 C 74.4 74.6 73.3 73.5 73.3 72.1 C 73.3 70.4 75.8 66.7 75.8 66.7 Z" stroke="#000000" stroke-width="1" stroke-linecap="butt" stroke-opacity="1" fill="#147398" fill-opacity="1"/><path d=" M 66.3 73.7 C 66.3 73.7 68.8 77.4 68.8 79.1 C 68.8 80.5 67.7 81.6 66.3 81.6 C 64.9 81.6 63.8 80.5 63.8 79.1 C 63.8 77.4 66.3 73.7 66.3 73.7 Z" stroke="#000000" stroke-width="1" stroke-linecap="butt" stroke-opacity="1" fill="#147398" fill-opacity="1"/><path d=" M 84.3 75.7 C 84.3 75.7 86.8 79.4 86.8 81.1 C 86.8 82.5 85.7 83.7 84.3 83.7 C 82.9 83.7 81.8 82.5 81.8 81.1 C 81.8 79.4 84.3 75.7 84.3 75.7 Z" stroke="#000000" stroke-width="1" stroke-linecap="butt" stroke-opacity="1" fill="#147398" fill-opacity="1"/><path d=" M 21.4 32.6 C 21.2 25.6 25.5 19.4 32 17 C 38.5 14.7 45.8 16.8 50 22.3 C 54.2 27.8 54.5 35.4 50.5 41.1 L 33.2 23.7 C 32.8 23.3 32.3 23.1 31.8 23.1 C 31.3 23.1 30.8 23.3 30.4 23.7 L 21.4 32.6 L 21.4 32.6 Z M 17.8 36.2 L 9.8 44.2 C 9.4 44.6 9.2 45.1 9.2 45.6 C 9.2 46.1 9.4 46.6 9.8 47 L 28.9 66.1 C 29.3 66.5 29.8 66.7 30.3 66.7 C 30.8 66.7 31.3 66.5 31.7 66.1 L 35.2 62.6 L 71.6 58.4 L 71.6 60.3 C 71.6 61.4 72.5 62.3 73.6 62.3 C 74.7 62.3 75.6 61.4 75.6 60.3 L 75.6 51.7 C 75.6 50.6 74.7 49.7 73.6 49.7 C 72.5 49.7 71.6 50.6 71.6 51.7 L 71.5 54 L 43.8 54 L 52.3 45.5 C 52.4 45.4 52.5 45.2 52.6 45.1 C 59.5 36.9 58.7 24.8 50.9 17.6 C 43.1 10.4 30.9 10.5 23.3 18 C 18.5 22.8 16.5 29.6 17.8 36.2 Z" stroke="#000000" stroke-width="1" stroke-linecap="butt" stroke-opacity="1" fill="#147398" fill-opacity="1"/></g></svg>