<svg version="1.1" viewBox="0 0 96 96" xmlns="http://www.w3.org/2000/svg" xmlns:xlink="http://www.w3.org/1999/xlink" id="Icons_Fence" overflow="hidden"><path d=" M 75 60 L 69 60 L 69 40 L 75 40 L 75 60 Z M 53 60 L 53 40 L 59 40 L 59 60 L 53 60 Z M 37 60 L 37 40 L 43 40 L 43 60 L 37 60 Z M 21 60 L 21 40 L 27 40 L 27 60 L 21 60 Z M 88 40 L 88 34 L 85 34 L 85 26 L 80 20 L 75 26 L 75 34 L 69 34 L 69 26 L 64 20 L 59 26 L 59 34 L 53 34 L 53 26 L 48 20 L 43 26 L 43 34 L 37 34 L 37 26 L 32 20 L 27 26 L 27 34 L 21 34 L 21 26 L 16 20 L 11 26 L 11 34 L 8 34 L 8 40 L 11 40 L 11 60 L 8 60 L 8 66 L 11 66 L 11 76 L 21 76 L 21 66 L 27 66 L 27 76 L 37 76 L 37 66 L 43 66 L 43 76 L 53 76 L 53 66 L 59 66 L 59 76 L 69 76 L 69 66 L 75 66 L 75 76 L 85 76 L 85 66 L 88 66 L 88 60 L 85 60 L 85 40 L 88 40 Z" stroke="#000000" stroke-width="1" stroke-linecap="butt" stroke-opacity="1" fill="#147398" fill-opacity="1"/></svg>