<svg version="1.1" viewBox="0 0 96 96" xmlns="http://www.w3.org/2000/svg" xmlns:xlink="http://www.w3.org/1999/xlink" id="Icons_Tractor" overflow="hidden"><g><path d=" M 24.4 40 L 24.4 26 L 37.6 26 L 44.5 40 L 44.5 40 L 24.5 40 L 24.4 40 L 24.4 40 Z M 78.4 40 L 66.5 40 L 66.5 31 C 66.5 29.9 67.4 29 68.5 29 L 68.5 25 C 65.2 25 62.5 27.7 62.5 31 L 62.5 40 L 51.2 40 C 51.1 39.8 51 39.6 50.9 39.3 L 43 23.3 C 42 21.2 39.9 19.9 37.6 20 L 24.5 20 C 21.2 20 18.5 22.7 18.5 26 L 18.5 40 L 16.4 41.3 C 15.8 41.7 15.5 42.3 15.5 43 L 15.5 46 C 15.5 46.3 15.6 46.6 15.7 46.9 C 14.1 47.9 12.6 49 11.2 50.4 C 10.8 50.8 10.5 51.4 10.5 52 C 10.5 52.6 10.8 53.2 11.2 53.6 C 12 54.2 13.1 54.2 13.9 53.4 C 18.7 48.6 23.6 48 24.9 48 L 26.4 48 C 35.1 48 42.1 54.4 42.4 63 L 42.4 64.9 C 42.4 65.9 43.1 66.8 44.1 67 C 44.7 67.1 45.3 66.9 45.7 66.5 C 46.1 66.1 46.4 65.6 46.4 65 L 46.4 63 L 64 63 C 65.7 57.6 70.7 54 76.4 54 C 77.6 54 78.7 54.2 79.9 54.5 C 80.5 54.7 81.2 54.5 81.7 54.1 C 82.2 53.7 82.5 53.1 82.5 52.5 L 82.5 44 C 82.5 42.9 82.1 41.9 81.3 41.2 C 80.5 40.4 79.5 40 78.4 40 Z" stroke="#000000" stroke-width="1" stroke-linecap="butt" stroke-opacity="1" fill="#147398" fill-opacity="1"/><path d=" M 26.4 70.5 C 22.5 70.5 19.4 67.4 19.4 63.5 C 19.4 59.6 22.5 56.5 26.4 56.5 C 30.3 56.5 33.4 59.6 33.4 63.5 C 33.4 67.4 30.3 70.5 26.4 70.5 L 26.4 70.5 Z M 26.4 51.5 C 20 51.5 14.7 56.5 14.4 62.9 L 14.4 63 C 14.4 63.2 14.4 63.3 14.4 63.5 C 14.4 70.1 19.8 75.5 26.4 75.5 C 33 75.5 38.4 70.1 38.4 63.5 C 38.4 63.3 38.4 63.2 38.4 63 C 38.2 56.6 32.9 51.5 26.4 51.5 Z" stroke="#000000" stroke-width="1" stroke-linecap="butt" stroke-opacity="1" fill="#147398" fill-opacity="1"/><path d=" M 76.4 72 C 73.6 72 71.4 69.8 71.4 67 C 71.4 64.2 73.6 62 76.4 62 C 79.2 62 81.4 64.2 81.4 67 C 81.4 69.8 79.2 72 76.4 72 Z M 82.4 60.3 C 79.2 57.5 74.5 57.2 71.1 59.7 C 67.7 62.2 66.5 66.8 68.2 70.6 C 69.9 74.5 74.2 76.6 78.3 75.7 C 82.5 74.8 85.4 71.1 85.4 66.9 C 85.4 64.4 84.4 62 82.4 60.3 L 82.4 60.3 Z" stroke="#000000" stroke-width="1" stroke-linecap="butt" stroke-opacity="1" fill="#147398" fill-opacity="1"/></g></svg>