<svg version="1.1" viewBox="0 0 96 96" xmlns="http://www.w3.org/2000/svg" xmlns:xlink="http://www.w3.org/1999/xlink" id="Icons" overflow="hidden"><path d=" M 20.9 57.6 L 40.1 38.4 L 29.4 38.4 C 32.9 31.6 40 26.9 48.2 26.9 C 53.5 26.9 58.4 28.9 62.1 32.2 L 81.6 32.2 C 75.7 19.6 62.9 11 48.2 11 C 31.1 11 16.7 22.6 12.5 38.4 L 1.7 38.4 L 20.9 57.6 Z" stroke="#00B050" stroke-width="1" stroke-linecap="butt" stroke-opacity="0.368627" fill="#346686" fill-opacity="0.211765"/><path d=" M 94.6 57.6 L 75.4 38.4 L 56.2 57.6 L 67 57.6 C 63.5 64.4 56.4 69.1 48.2 69.1 C 42.9 69.1 38 67.1 34.3 63.8 L 14.7 63.8 C 20.7 76.4 33.4 85 48.2 85 C 65.3 85 79.7 73.4 83.9 57.6 L 94.6 57.6 Z" stroke="#00B050" stroke-width="1" stroke-linecap="butt" stroke-opacity="0.368627" fill="#346686" fill-opacity="0.211765"/></svg>